<svg id="Capa_1" data-name="Capa 1" xmlns="http://www.w3.org/2000/svg" viewBox="0 0 48.53 48.43"><defs><style>.cls-1{fill:#fff;}</style></defs><title>x.logo</title><path class="cls-1" d="M45.31,12a23,23,0,0,0-8.79-8.83A24.42,24.42,0,0,0,24.26,0,24.34,24.34,0,0,0,12,3.17,23.1,23.1,0,0,0,3.21,12,25.5,25.5,0,0,0,0,24.8,25.49,25.49,0,0,0,3.21,37.6,22.76,22.76,0,0,0,12,46.38a23.6,23.6,0,0,0,3.92,1.77,5,5,0,0,0,6.63-4.72v0a5,5,0,0,0-3.19-4.64,12.78,12.78,0,0,1-1.88-.94,13.52,13.52,0,0,1-4.91-5.26A16.08,16.08,0,0,1,10.7,24.8,16.35,16.35,0,0,1,12.53,17a13.46,13.46,0,0,1,4.91-5.31,12.87,12.87,0,0,1,6.82-1.87,12.87,12.87,0,0,1,6.82,1.87A13.47,13.47,0,0,1,36,17a16.36,16.36,0,0,1,1.83,7.81A16.09,16.09,0,0,1,36,32.56a13.53,13.53,0,0,1-4.91,5.26,12.78,12.78,0,0,1-1.88.94A5,5,0,0,0,26,43.41h0a5,5,0,0,0,6.63,4.72,24.16,24.16,0,0,0,3.88-1.75,22.68,22.68,0,0,0,8.79-8.79,25.49,25.49,0,0,0,3.21-12.8A25.49,25.49,0,0,0,45.31,12Z"/></svg>